<?xml version="1.0" encoding="UTF-8" standalone="no"?>
<!-- Created with Inkscape (http://www.inkscape.org/) -->

<svg
   xmlns:dc="http://purl.org/dc/elements/1.1/"
   xmlns:cc="http://creativecommons.org/ns#"
   xmlns:rdf="http://www.w3.org/1999/02/22-rdf-syntax-ns#"
   xmlns:svg="http://www.w3.org/2000/svg"
   xmlns="http://www.w3.org/2000/svg"
   xmlns:sodipodi="http://sodipodi.sourceforge.net/DTD/sodipodi-0.dtd"
   xmlns:inkscape="http://www.inkscape.org/namespaces/inkscape"
   width="1024"
   height="500"
   viewBox="0 0 1024 500.00001"
   id="svg5617"
   version="1.1"
   inkscape:version="0.91 r13725"
   sodipodi:docname="promo.svg"
   inkscape:export-filename="D:\Projekty\GitHub\StoryWheel\play\promo.png"
   inkscape:export-xdpi="300.01999"
   inkscape:export-ydpi="300.01999">
  <defs
     id="defs5619" />
  <sodipodi:namedview
     id="base"
     pagecolor="#ffffff"
     bordercolor="#666666"
     borderopacity="1.0"
     inkscape:pageopacity="0.0"
     inkscape:pageshadow="2"
     inkscape:zoom="0.7"
     inkscape:cx="363.60316"
     inkscape:cy="-2.9548045"
     inkscape:document-units="px"
     inkscape:current-layer="layer1"
     showgrid="false"
     units="px"
     showguides="true"
     inkscape:guide-bbox="true"
     inkscape:window-width="1920"
     inkscape:window-height="1017"
     inkscape:window-x="-8"
     inkscape:window-y="-8"
     inkscape:window-maximized="1">
    <sodipodi:guide
       position="208.57143,292.85715"
       orientation="0,1"
       id="guide7947" />
  </sodipodi:namedview>
  <metadata
     id="metadata5622">
    <rdf:RDF>
      <cc:Work
         rdf:about="">
        <dc:format>image/svg+xml</dc:format>
        <dc:type
           rdf:resource="http://purl.org/dc/dcmitype/StillImage" />
        <dc:title></dc:title>
      </cc:Work>
    </rdf:RDF>
  </metadata>
  <g
     inkscape:label="Layer 1"
     inkscape:groupmode="layer"
     id="layer1"
     transform="translate(0,-552.36216)">
    <rect
       style="fill:#d7e8f5;fill-opacity:1;stroke:none;stroke-width:31.60000038;stroke-miterlimit:4;stroke-dasharray:none;stroke-opacity:1"
       id="rect7949"
       width="1081.4286"
       height="601.42859"
       x="-14.285714"
       y="538.07642" />
    <path
       id="path7564"
       d="m 881.30293,692.47966 c -2.461,0.041 -4.99,0.3318 -7.55583,0.9051 -31.69482,7.0842 -32.15635,54.5761 11.50154,69.9116 l -7.8313,8.2248 15.75139,7.4274 0.56039,-13.7145 c 9.35506,3.9681 15.37863,8.0895 19.06682,12.2783 4.50075,5.1121 5.83625,10.3307 5.74558,16.6071 -0.0135,0.9303 -0.0661,1.8814 -0.14797,2.8532 -13.16698,-2.4607 -24.21266,3.142 -29.32796,11.4418 -2.98896,4.8499 -3.9731,10.7072 -2.04637,16.1153 1.92674,5.4078 6.71997,10.1021 14.27548,12.888 l 2.03662,-5.5192 c -6.34281,-2.3391 -9.5065,-5.7915 -10.77336,-9.3466 -1.2656,-3.5543 -0.67499,-7.478 1.52534,-11.0482 3.80152,-6.1683 12.33992,-10.9921 23.53326,-8.7269 -1.82914,10.5693 -5.74558,23.2301 -5.99114,38.0448 l 5.88284,0 c 0.26445,-13.455 3.99074,-25.3133 5.86395,-36.3231 13.06623,4.968 24.80673,2.6707 32.39751,-3.6601 5.40556,-4.5083 8.67157,-11.0366 8.98262,-18.0333 l 5.61776,9.7395 8.30353,-11.1962 -12.6623,-4.4075 c 29.32731,-32.3799 7.65341,-72.5527 -22.00824,-64.6181 -30.13202,8.0608 -36.00573,50.5963 14.78738,67.2648 0.76346,6.4886 -1.83952,12.6072 -6.78859,16.7349 -5.91023,4.9289 -15.22815,7.0742 -26.78006,2.5973 -0.3482,-0.1354 -0.69577,-0.26 -1.04208,-0.3841 0.13789,-1.4567 0.22479,-2.9058 0.24556,-4.3383 0.10484,-7.2463 -1.72398,-14.3394 -7.2114,-20.572 -4.59741,-5.2214 -11.58058,-9.8345 -21.84108,-14.0979 32.77247,-35.592 13.609,-67.5098 -14.06958,-67.0485 z"
       inkscape:connector-curvature="0" />
    <path
       id="path7641"
       d="m 64.59499,688.12729 -2.774557,4.69553 -7.542392,12.77251 c -6.022924,-1.43301 -11.630226,-1.7605 -18.208188,0.0417 l -13.707367,-13.63605 -2.753835,-2.73307 -2.024197,3.30889 c -11.8551356,19.28695 -13.5649803,35.23522 -7.203369,46.71192 3.174384,5.72626 8.18554,10.10582 14.498816,13.20432 -1.449089,10.83668 0.04338,23.52016 3.504196,35.71767 l 0.637244,2.22999 31.946465,0 c 0.0072,4.40609 1.05091,8.63241 2.867287,12.4539 5.984452,12.59038 19.629012,21.30665 32.429495,22.23594 14.026312,1.01768 26.286552,-4.18919 36.221092,-11.98151 9.93518,-7.7916 17.67781,-18.15526 23.19238,-27.92869 8.90534,-15.78381 7.65912,-32.02831 -0.23674,-43.80478 -7.40166,-11.04036 -20.51682,-18.1616 -35.81007,-18.03363 -1.01933,0.009 -2.04458,0.0489 -3.08264,0.12326 -11.02192,0.78593 -23.240733,5.41952 -35.583834,14.78686 -1.70557,-1.16268 -3.359853,-2.23325 -4.983543,-3.22666 3.002093,-10.22391 0.93581,-23.94572 -8.806357,-42.12959 l -2.579234,-4.80856 z m -43.702314,11.07649 12.114904,12.05306 1.335982,1.32578 1.777578,-0.57536 c 7.231988,-2.3422 11.840673,-1.915 18.834592,0.0308 l 2.270806,0.63722 1.191956,-2.03473 5.805912,-9.8132 c 3.926066,8.22804 5.970314,15.11335 6.627954,20.87982 -9.65076,-4.28183 -15.374465,1.31465 -16.256018,10.24492 7.810374,3.76824 12.804105,3.03964 15.968301,-0.62698 -0.389648,1.94326 -0.979871,3.70475 -1.736806,5.29155 -3.853732,8.07506 -12.32535,12.65522 -21.619672,15.19793 -15.286001,-1.1509 -26.540399,-6.64305 -31.453573,-15.50604 -4.647817,-8.3848 -4.115457,-20.63121 5.138084,-37.10521 z m 8.83694,21.03441 c -2.679853,-0.0145 -5.856221,0.96896 -9.494245,3.22566 2.304351,9.56949 7.694967,14.21078 19.554703,8.48805 -0.672429,-6.80915 -4.164126,-11.68283 -10.060132,-11.71443 z m 89.952284,9.28901 c 13.37033,-0.12299 24.43236,6.03382 30.65224,15.30969 6.63354,9.89507 7.90803,23.32825 -0.0109,37.36206 -5.21305,9.24073 -12.56506,19.00131 -21.62953,26.11068 -9.06448,7.10892 -19.70201,11.57759 -31.977386,10.68652 -10.21796,-0.74182 -22.48544,-8.53414 -27.332836,-18.7327 -2.423381,-5.09891 -3.138882,-10.679 -1.202163,-16.64598 1.936729,-5.96707 6.634194,-12.45127 15.57734,-18.87606 7.013654,-5.03878 11.863033,-3.55115 13.953976,-1.19193 1.04564,1.17943 1.493485,2.63581 1.182103,4.26418 -0.31139,1.62854 -1.421802,3.5564 -4.151311,5.35403 -8.243421,5.42939 -12.047823,11.65068 -11.672973,17.5299 0.37485,5.87923 4.955259,10.37081 10.69639,12.16617 11.48456,3.59137 28.5396,-2.76006 36.27304,-25.56548 l -5.82663,-1.97287 c -1.17782,3.47453 -2.55721,6.42406 -4.05858,8.9809 l -28.750379,0 c 1.389905,-1.86827 3.511758,-3.89775 6.720014,-6.01136 3.820845,-2.51545 6.137685,-5.84408 6.803215,-9.31998 0.66421,-3.47562 -0.37156,-6.97814 -2.6108,-9.50473 -4.478484,-5.053 -13.411758,-5.98546 -22.143144,0.28764 -9.708631,6.97524 -15.394181,14.45973 -17.828421,21.95944 -0.279484,0.86146 -0.505716,1.72165 -0.698403,2.57885 l -27.899068,0 c -2.629218,-10.17945 -3.579818,-20.57072 -2.733449,-29.31597 4.933886,1.62103 10.418535,2.62068 16.276404,3.02125 l 0.503751,0.0308 0.493218,-0.12299 c 9.869747,-2.61516 19.990386,-7.55858 25.297808,-17.11892 1.834797,1.13968 3.731406,2.38857 5.702984,3.78147 l 1.880832,1.32506 1.808488,-1.42795 c 12.169488,-9.69419 23.87304,-14.1155 34.00125,-14.83757 0.91082,-0.0652 1.81112,-0.0944 2.70286,-0.10261 z m -30.466803,60.92306 26.387503,0 c -6.75882,7.12051 -14.69677,8.20593 -20.006493,6.54542 -3.884968,-1.21439 -6.130126,-3.687 -6.38101,-6.54506 z"
       inkscape:connector-curvature="0"
       inkscape:transform-center-x="2.5875781"
       inkscape:transform-center-y="4.2291354e-005" />
    <path
       id="path7674"
       d="m 906.4037,1411.4091 c -10.32018,0.1719 -22.82054,4.3945 -33.04871,14.0689 l 5.78204,70.7908 -2.12563,25.521 19.10202,0 5.02223,-12.3962 6.94213,12.3962 49.79835,0 c 2.59491,-19.2539 -14.53561,-42.7777 -24.49331,-42.8461 l -5.43237,0.3694 c -11.86477,2.3876 -16.31583,8.8831 -21.79322,16.3596 l -1.40657,1.9209 -2.20844,-0.8841 -4.28214,-1.7253 -4.69392,12.0264 -5.72025,-2.2281 4.72448,-12.0883 -3.91275,-1.5708 -2.81412,-1.1299 1.08878,-2.8243 c 2.62252,-6.8117 6.81428,-13.2606 12.78594,-17.7978 4.89899,-3.7221 11.0399,-6.0742 18.1263,-6.1415 0.47258,0 0.94647,0 1.4276,0.021 0.63,0.021 1.26722,0.055 1.91037,0.1127 l 0.82159,-5.9671 c -8.57184,-5.29 -22.19154,-4.8878 -34.08622,-0.2366 l -2.22816,-5.7199 c 6.60889,-2.5844 13.73209,-4.108 20.59074,-4.1277 5.9089,-0.018 11.61962,1.0868 16.61687,3.5736 l 1.83807,-13.3611 c -10.28174,-9.0105 -25.44307,-8.0884 -39.2307,-0.1952 l -3.04975,-5.3305 c 7.74465,-4.4333 16.26259,-6.9884 24.42166,-7.0032 6.72391,-0.013 13.20562,1.701 18.82432,5.5145 l 0.71906,-5.2069 c 0.11634,-0.5015 0.20047,-0.9902 0.25634,-1.469 6.6e-4,-0.01 0,-0.013 6.6e-4,-0.02 0.11732,-3.4665 -1.33624,-6.0325 -4.25191,-8.2159 -3.11646,-2.3344 -8.01315,-3.923 -13.81261,-4.1596 -0.7253,-0.03 -1.45915,-0.043 -2.20844,-0.031 z m -63.88898,25.4069 c -0.2754,0 -0.55146,0.01 -0.8216,0.021 -4.32551,0.1765 -7.93986,1.3721 -10.16736,3.0399 -2.22685,1.6679 -3.18844,3.4967 -2.93703,6.1929 l -0.19554,0.02 c 0.0434,0.4056 0.10648,0.8262 0.2054,1.2531 l 0.76013,5.4942 c 3.55158,-2.4628 7.59152,-3.6686 11.67647,-3.6456 5.84514,0.034 11.70276,2.3938 17.01748,6.3263 l -3.6459,4.9295 c -4.51218,-3.3389 -9.22286,-5.0906 -13.41167,-5.1142 -3.9397,-0.022 -7.48503,1.3283 -10.65014,4.7139 l 1.44798,10.4648 c 2.94919,-1.3743 6.1741,-1.9974 9.47887,-1.9925 4.8612,0.01 9.88934,1.3662 14.46003,3.6768 l -2.77304,5.4841 c -7.1633,-3.6217 -14.94871,-4.1097 -20.27296,-0.6574 l 0.66779,4.8376 c 0.27507,-0.01 0.55113,-0.019 0.8216,-0.021 4.80894,-0.033 8.92578,1.3343 12.27228,3.6972 4.75867,3.3609 7.96156,8.3848 10.72178,13.6696 l 1.40657,2.7113 -2.70074,1.4276 -2.78355,1.468 4.50955,8.3598 -5.40213,2.9167 -4.53913,-8.4111 -3.009,1.5919 -2.08488,1.0989 -1.6021,-1.7253 c -5.36335,-5.7906 -9.57517,-10.7162 -19.85164,-11.5641 l -2.95773,-0.2465 c -10.54498,5.0321 -15.62866,12.5816 -13.94735,25.0586 l 62.58561,0 -1.67441,-19.6153 -0.01,-0.021 4.46717,-53.4446 c -8.20607,-8.5755 -18.72574,-12.0926 -27.06128,-11.9953 z m 75.3709,32.5456 c -5.78171,0.025 -10.49206,1.8916 -14.45016,4.899 -4.06196,3.086 -7.23988,7.4858 -9.53048,12.3542 l 8.76048,3.523 c 4.61932,-6.2106 10.12727,-12.7495 20.31403,-15.8877 l -2.63961,-4.7554 c -0.42723,-0.034 -0.86694,-0.097 -1.28366,-0.1127 -0.39502,-0.015 -0.78544,-0.022 -1.17093,-0.021 z m -83.09387,18.5477 c -1.4092,-0.01 -2.97022,0.1784 -4.69294,0.534 l -2.95773,3.502 c 7.68616,2.0079 12.57168,6.483 16.67833,10.8253 l 3.50162,-1.8489 2.90614,-1.5407 c -2.17821,-3.7405 -4.55031,-6.8741 -7.32269,-8.8321 -2.13417,-1.5071 -4.4974,-2.4763 -7.51724,-2.6183 -0.19488,-0.01 -0.39436,-0.02 -0.59549,-0.021 z"
       inkscape:connector-curvature="0" />
    <path
       id="path7685"
       d="m 671.52268,1106.6908 c -0.69166,0 -1.38032,0.01 -2.06809,0.028 -0.54045,0.015 -1.0809,0.032 -1.61866,0.056 -2.63908,0.4691 -3.85771,1.6246 -4.51943,2.9471 -0.72909,1.4582 -0.70064,3.4203 0.11228,5.165 0.81352,1.7456 2.30553,3.1727 4.38859,3.7056 2.08336,0.533 4.9512,0.2575 8.72058,-2.1519 l 3.01306,4.7159 c -4.73621,3.0271 -9.31912,3.8256 -13.11846,2.8534 -3.79903,-0.9722 -6.61806,-3.6298 -8.07473,-6.7558 -1.37254,-2.9451 -1.62465,-6.4004 -0.3084,-9.4688 -12.85018,2.078 -24.48561,7.0058 -33.42298,13.9416 -2.9373,3.2001 -3.22474,6.9195 -1.93724,9.4598 1.4462,2.8523 4.85359,4.9344 11.66837,2.7786 l 1.69351,5.3336 c -8.5574,2.7067 -15.61082,-0.1761 -18.34841,-5.5767 -0.6677,-1.3166 -1.07551,-2.7415 -1.2357,-4.2107 -1.4414,1.7102 -2.74268,3.4906 -3.89245,5.3428 l 0.0377,0.018 c -2.5792,5.8734 -2.63789,9.9416 -1.60968,12.5852 1.0288,2.6439 3.18432,4.3236 6.50338,5.2494 6.63753,1.8504 17.38578,-0.3824 24.9545,-6.0351 3.23972,-2.4193 6.31086,-8.287 6.57824,-12.8376 0.13324,-2.2756 -0.34882,-4.0733 -1.30097,-5.2213 -0.95216,-1.1479 -2.4768,-2.007 -5.63298,-1.9743 l -0.056,-5.595 c 4.33769,-0.045 7.85976,1.4235 9.99312,3.9955 2.13306,2.572 2.77262,5.8842 2.58249,9.1227 -0.38026,6.4773 -3.77119,13.2259 -8.81431,16.992 -8.94544,6.6813 -20.76053,9.4635 -29.80119,6.943 -4.18828,-1.1678 -7.89569,-3.7087 -9.80598,-7.6442 -2.85826,13.6074 1.29439,26.2471 9.19756,34.9943 1.03299,1.1438 2.13246,2.2247 3.28463,3.2277 -0.8246,-2.3615 -1.20247,-4.8206 -1.11384,-7.2139 0.15869,-4.2891 1.82107,-8.4873 5.156,-11.3869 2.73489,-2.3792 6.51296,-3.7517 11.0315,-3.7427 0.30122,0 0.60902,0 0.91682,0.018 0.70364,0.03 1.42614,0.091 2.16181,0.1874 l -0.73058,5.5488 c -4.66735,-0.6132 -7.69658,0.4558 -9.71197,2.2083 -2.01509,1.7528 -3.12683,4.3757 -3.23762,7.3732 -0.22157,5.9955 3.61399,12.9966 11.88395,15.0272 l -0.01,0.056 c 8.14181,1.554 17.22739,0.1114 26.34889,-5.4554 0.005,-0 0.0129,-0.01 0.0186,-0.01 1.89832,-1.3324 2.92083,-2.6373 3.42476,-3.7616 0.59434,-1.327 0.58177,-2.4828 0.15869,-3.7242 -0.84556,-2.4822 -3.87449,-5.0338 -6.6525,-5.7449 -4.49189,-1.1498 -7.34535,0.4299 -8.68316,2.3115 -1.3378,1.8803 -1.41924,3.7277 0.64555,5.3326 l -3.43434,4.4165 c -4.24786,-3.3035 -4.51883,-9.1284 -1.76807,-12.9963 2.0636,-2.9008 5.68448,-4.8883 10.04971,-5.0153 0.18175,-0 0.36769,-0.011 0.55213,-0.01 1.2893,0.01 2.63189,0.1862 4.02329,0.542 4.6425,1.1887 8.93467,4.5742 10.56352,9.3568 0.42397,1.2441 0.62578,2.602 0.56171,3.9865 5.00329,-2.5565 10.27966,-4.8267 15.65423,-6.5316 9.02929,-4.126 12.9439,-11.3593 12.79119,-17.4501 -0.1542,-6.136 -3.94844,-11.3001 -12.68819,-12.1642 l 0.55213,-5.5674 c 10.97851,1.0857 17.50465,8.937 17.72203,17.5909 0.12635,5.0422 -1.72286,10.2889 -5.44584,14.7553 4.81227,-0.5389 9.59459,-0.4476 14.2314,0.4872 -0.94377,-1.9378 -1.40129,-4.0356 -1.33751,-6.1195 0.20271,-6.598 5.81472,-12.7532 14.63412,-12.8469 0.58776,-0.01 1.18989,0.016 1.80549,0.065 l -0.44912,5.5767 c -7.46363,-0.5983 -10.27008,3.3193 -10.39524,7.3824 -0.12336,4.0183 2.55854,8.5161 10.24612,9.1132 8.47357,0.075 14.54819,-4.5207 17.52501,-11.3498 3.98527,-9.1431 2.09504,-22.8508 -10.43296,-35.3878 -0.23714,-0.2374 -0.47249,-0.477 -0.71112,-0.7111 -0.13294,1.1354 -0.42638,2.2286 -0.85095,3.2469 -2.17079,5.2069 -7.25583,8.7215 -12.53818,9.7033 -7.28637,1.354 -13.26128,-1.601 -16.01893,-6.11 -2.75765,-4.5083 -2.03366,-10.8839 2.92832,-14.2403 l 3.13492,4.641 c -2.66873,1.8049 -2.77861,4.2487 -1.2914,6.68 1.48722,2.4319 4.84161,4.538 10.22697,3.5373 3.38523,-0.6293 7.15492,-3.3924 8.39272,-6.3626 0.6198,-1.4851 0.73956,-2.9529 0.12216,-4.632 -0.50153,-1.3639 -1.55309,-2.9236 -3.50919,-4.5662 l -0.056,-0.046 c -8.17894,-6.1641 -16.86869,-10.5973 -25.6752,-13.5209 0.005,0.01 0.0135,0.018 0.0189,0.028 2.00132,3.659 2.14983,7.8095 0.91712,11.481 -2.46512,7.3432 -10.20121,13.1289 -19.77125,12.8091 -2.08037,-0.069 -4.06013,0.9342 -5.74466,2.8915 -1.68483,1.9573 -2.91484,4.8246 -3.20019,7.8786 -0.57039,6.1082 2.07288,12.8409 12.37919,16.1687 l -1.72346,5.3243 c -12.30104,-3.9715 -17.01599,-13.6374 -16.23451,-22.0074 0.39134,-4.1843 2.00791,-8.0729 4.5383,-11.0126 2.53069,-2.9397 6.13061,-4.9713 10.17127,-4.8374 7.19804,0.2401 12.67232,-4.217 14.2784,-9.0015 0.80305,-2.3917 0.69915,-4.7718 -0.52398,-7.0079 -1.1881,-2.1713 -3.54213,-4.3185 -7.75675,-5.8853 -5.12427,-0.8884 -10.22817,-1.3076 -15.23296,-1.2917 z m 30.30632,75.435 c -12.55016,1.0211 -26.15906,7.0065 -37.51124,13.9416 -16.76149,10.2395 -34.40028,8.0044 -46.9154,-1.2815 4.92365,17.619 22.37021,21.1953 40.5713,16.739 1.82137,-0.6842 3.611,-1.9576 5.13714,-3.602 2.113,-2.2777 3.64393,-5.2308 4.126,-7.6726 l 5.49254,1.0854 c -0.73208,3.7077 -2.71813,7.3855 -5.51111,10.3958 -2.6798,2.8879 -6.17103,5.1949 -10.2084,5.801 -2.02587,4.5122 -3.69304,8.8867 -4.36972,11.9486 -1.06294,4.8087 4.25355,6.6546 6.63393,1.8055 5.69555,-11.6004 13.73436,-21.9265 23.77568,-30.8303 7.80407,-5.1359 14.49369,-11.4687 18.77958,-18.3305 z"
       inkscape:connector-curvature="0"
       style="fill-rule:evenodd" />
    <path
       id="path7707"
       d="m 263.92036,694.11214 -5.42532,1.8177 c 5.58636,16.644 8.28953,34.3412 7.47236,53.4174 l -0.26789,6.2764 4.9085,-3.9128 c 14.45517,-11.5111 25.05291,-26.3967 31.3156,-44.7298 l -5.41552,-1.8563 c -5.21712,15.2717 -13.49594,27.8326 -24.69438,38.0323 0.0478,-17.3451 -2.7295,-33.6593 -7.89305,-49.0446 z m -51.79097,2.4879 c -0.8334,33.547 17.21222,59.0983 47.43724,67.9022 0.78777,-33.7092 -16.88339,-59.2768 -47.43724,-67.9022 z m 102.61444,46.0399 c -17.8913,-0.01 -35.4103,7.943 -50.05866,23.2977 27.79251,15.2619 58.8298,9.922 82.11978,-14.5624 -10.46241,-5.8585 -21.32713,-8.7298 -32.06142,-8.735 z m -77.16443,23.0962 c -16.05858,0.1782 -28.81053,9.9076 -35.72597,27.9379 25.20875,10.1128 46.403,1.3043 55.94324,-23.6895 -7.14385,-2.9313 -13.93376,-4.3176 -20.21697,-4.2481 z m 25.09669,5.9611 c -11.56095,24.5107 -2.69215,45.6284 23.0677,56.0578 11.56891,-24.6344 3.05986,-45.716 -23.06801,-56.0578 z"
       inkscape:connector-curvature="0" />
    <path
       id="path7751"
       d="m 634.38475,691.05223 -2.04047,13.3942 c 6.46105,7.3279 15.27714,12.9138 25.13917,17.7763 -9.42048,-1.2872 -18.61273,-3.8543 -26.86759,-7.894 -0.0927,2.7341 -0.18539,8.3333 0.28442,11.2943 7.30859,2.855 15.51616,4.4523 24.10909,5.31 -7.52254,1.7069 -15.14667,2.4062 -22.67271,2.2062 0.84597,2.9712 2.32521,7.0597 3.57431,10.0547 7.15718,-0.6276 14.57402,-2.382 22.01721,-4.9107 -5.963,4.5298 -12.39579,8.2996 -19.10476,11.2124 l 9.16654,9.5408 5.44208,-3.142 -1.89761,7.0826 c 2.15474,2.0983 6.50675,4.8993 8.74847,6.5465 l 4.21171,-3.702 -0.10729,6.4122 c 6.32011,4.4409 13.03256,3.8356 19.41108,0.5454 -0.25522,2.0436 -0.41521,4.2187 -0.47044,6.5264 -19.15935,6.1595 -40.04777,8.146 -38.80216,16.8005 l 10.96829,2.2052 -10.82703,5.7265 c 0.47711,2.3484 1.21895,4.7625 2.45377,7.1985 l 13.12112,-5.1825 -8.86592,11.6391 c 1.50019,1.9458 4.6377,4.7053 6.51913,6.5121 l 12.52912,-14.6781 -5.70175,20.1491 c 1.98015,1.3732 6.15409,2.9617 8.33994,4.0854 l 13.74901,-22.562 -4.48788,25.4735 c 5.4678,1.1069 6.57342,1.5268 12.64021,1.0126 l 5.77285,-24.0171 6.44296,22.8083 c 2.32774,-0.7967 7.36764,-3.0239 9.51539,-4.02 l -3.74381,-18.8238 11.22828,14.329 c 2.29568,-1.6113 6.01315,-3.6782 7.71872,-5.5005 l -5.7119,-11.8486 10.14931,5.7741 c 8.11614,-5.4566 -14.0728,-18.2391 -27.59898,-31.8132 2.03666,-2.7696 3.69366,-5.4236 5.01101,-7.9491 6.1741,8.7827 14.20517,12.6148 24.07419,9.5007 l -0.3733,-6.9248 5.07957,4.7434 c 2.38711,-1.3776 4.78437,-3.2178 7.13592,-5.1316 l -2.21887,-6.0735 5.93411,2.776 c 4.04157,-2.1071 7.27463,-5.4281 10.50071,-8.758 -5.13925,-3.9876 -10.44992,-8.8573 -15.07493,-12.7742 5.63128,2.9084 12.2904,5.5615 18.05944,7.6026 1.35545,-2.3776 3.82349,-6.6861 4.90848,-9.1104 -6.22995,-1.2824 -12.518,-3.5752 -18.54226,-6.5328 7.42256,0.8127 14.51562,0.9682 21.06713,-0.3612 0.8904,-2.7433 3.1172,-7.1988 3.53082,-9.8392 -7.49652,2.1894 -15.63108,2.7871 -23.78309,2.2316 9.15225,-2.862 17.55218,-6.6871 23.98529,-12.6371 l -1.73826,-10.2461 c -26.80411,24.1526 -55.21761,9.7954 -66.70333,26.6378 -1.60082,-0.412 -3.21085,-0.4539 -4.73992,-0.1778 -4.66628,-25.6153 -44.13378,-16.9586 -70.46459,-50.4983 z m 80.7415,66.3056 -3.06101,14.5404 -7.49874,-14.0773 c 3.23656,1.391 6.52168,2.5468 10.55975,-0.4625 z"
       inkscape:connector-curvature="0" />
    <path
       id="path7762"
       d="m 294.21397,1379.2786 c -0.2045,-6e-4 -0.40901,0 -0.61259,0.015 -0.46511,0.025 -0.92747,0.081 -1.38584,0.1687 -3.67125,0.7039 -6.45458,4.0165 -7.11316,8.25 -0.42802,2.7496 -0.21708,5.9702 0.6549,9.7573 -0.74964,-0.3391 -1.49009,-0.6445 -2.21581,-0.9097 -2.18608,-0.7971 -4.29243,-1.2908 -6.26633,-1.3696 -1.9736,-0.079 -3.81505,0.2582 -5.46978,1.1228 -3.30946,1.7293 -4.91912,5.7108 -4.42733,10.0566 0.49117,4.3445 2.64444,9.4789 6.69526,15.701 5.97107,9.1723 14.83248,20.5681 24.08573,28.3773 4.57358,3.8601 9.23393,6.8817 13.97614,8.1979 -0.25908,-1.9206 -0.17906,-3.9411 0.19224,-5.9603 -3.15402,-1.1798 -6.79675,-3.5137 -10.47352,-6.6165 -8.51556,-7.1868 -17.24544,-18.3179 -22.97859,-27.1251 -3.75434,-5.7666 -5.47468,-10.3095 -5.80397,-13.2194 -0.32899,-2.9097 0.2928,-3.7614 1.38829,-4.3338 1.09518,-0.5722 3.61882,-0.7242 7.11807,0.5518 1.98004,0.7227 4.22865,1.8602 6.63793,3.4278 3.65776,9.846 9.41881,22.0386 16.40872,31.2796 2.99121,3.9545 6.19888,7.3866 9.7107,9.8296 0.77969,-1.693 1.74364,-3.3677 2.88298,-4.9957 -2.65364,-1.9522 -5.40478,-4.8281 -8.02378,-8.2906 -4.39881,-5.8156 -8.43768,-13.2154 -11.67846,-20.3338 9.92961,9.0055 15.96476,16.5737 22.14585,25.5087 0.54085,-0.6157 1.10684,-1.2215 1.6998,-1.8142 0.79717,-0.7972 1.61764,-1.5437 2.45527,-2.2455 -6.8875,-9.8561 -13.93935,-18.4299 -26.07649,-28.9019 -1.61273,-1.391 -3.20706,-2.6374 -4.77471,-3.7436 -2.11556,-6.0278 -2.60612,-10.4649 -2.2014,-13.0698 0.41697,-2.6776 1.15374,-3.239 2.53099,-3.5032 1.37757,-0.2637 4.07045,0.3096 7.29621,2.4252 3.22545,2.1155 6.92614,5.6329 10.51185,10.4818 9.31579,12.5995 13.89152,21.8208 18.15604,32.558 1.73016,-0.9575 3.49066,-1.7225 5.24903,-2.2823 -4.38196,-10.9678 -9.2554,-20.7769 -18.79777,-33.6824 -3.91224,-5.2919 -8.01273,-9.2667 -11.97648,-11.8667 -3.25151,-2.1324 -6.44906,-3.4346 -9.51999,-3.445 z m 49.2838,31.0938 c -1.74088,0 -3.48146,0.6641 -4.80966,1.9923 -2.65671,2.6567 -2.65671,6.9644 0,9.6211 1.50756,1.5079 3.54616,2.1585 5.51332,1.9555 -1.4257,3.6339 -0.6638,7.9006 2.29031,10.855 2.86458,2.8646 6.96293,3.67 10.52135,2.4175 -0.13184,1.8961 0.52429,3.8372 1.9736,5.2865 2.6567,2.657 6.96416,2.6567 9.62117,0 2.6564,-2.6567 2.6564,-6.9645 0,-9.6212 -1.46157,-1.4613 -3.42168,-2.1171 -5.33242,-1.9708 1.2215,-3.5444 0.41023,-7.6108 -2.43749,-10.4582 -1.99291,-1.9929 -4.58278,-2.9894 -7.17264,-2.9894 -1.15896,0 -2.31791,0.2014 -3.42291,0.6003 0.26368,-2.0229 -0.37957,-4.1422 -1.93374,-5.6966 -1.3285,-1.3285 -3.06908,-1.9923 -4.81058,-1.9923 z m -4.71799,22.7336 c -0.25938,0.044 -0.52214,0.095 -0.78919,0.1533 -3.99686,0.8738 -8.61153,3.38 -12.57804,7.3462 -3.9665,3.9668 -6.47236,8.5818 -7.34618,12.5786 -0.66686,3.0507 -0.41698,5.5885 0.58929,7.471 -14.26005,10.9702 -45.85385,36.6206 -56.77961,42.7118 -4.32707,14.3496 -0.78091,24.3399 17.52537,17.5254 5.77822,-11.1379 32.25329,-43.2646 43.33051,-56.9698 1.68233,0.509 3.73656,0.5458 6.10077,0.029 3.99686,-0.8738 8.61153,-3.3799 12.57804,-7.3461 3.96589,-3.9669 6.47175,-8.5818 7.34556,-12.5787 0.0932,-0.4274 0.16465,-0.8422 0.2226,-1.2491 -2.39671,-0.7337 -4.65115,-2.0413 -6.53921,-3.9291 -1.6765,-1.6771 -2.89432,-3.6439 -3.66083,-5.742 z m 15.01614,14.2432 c -0.54882,1.7629 -1.30613,3.5296 -2.25567,5.2662 11.92773,4.5919 21.60624,9.1244 35.24297,19.208 4.84831,3.5851 8.36595,7.2864 10.48151,10.5119 2.11555,3.226 2.68797,5.9195 2.42368,7.2971 -0.26429,1.3776 -0.82567,2.114 -3.50323,2.5307 -2.67755,0.417 -7.28488,-0.1079 -13.57144,-2.3756 -0.55648,-0.2008 -1.12431,-0.4117 -1.69858,-0.6285 -0.76773,-1.0057 -1.58881,-2.0196 -2.47059,-3.0415 -11.20937,-12.9932 -20.27773,-20.1738 -31.0459,-27.5537 -0.61228,0.7113 -1.25523,1.4112 -1.9365,2.0928 -0.71315,0.7132 -1.44593,1.384 -2.1922,2.0211 9.1582,6.2204 16.73249,11.9673 25.49793,21.2574 -6.10751,-2.9575 -12.22115,-6.4503 -17.18105,-10.2022 -4.33749,-3.2816 -7.75703,-6.771 -9.58652,-10.0155 -1.55754,1.2136 -3.1672,2.2637 -4.80445,3.1415 2.44975,4.1986 6.33961,7.9676 10.93465,11.4436 8.58914,6.4975 19.72983,11.9339 29.16612,15.6067 2.18914,3.0642 3.71908,5.922 4.61129,8.3696 1.27669,3.4996 1.12462,6.0235 0.5525,7.1193 -0.57243,1.0952 -1.42417,1.717 -4.33382,1.3877 -2.90965,-0.329 -7.45165,-2.0497 -13.21853,-5.804 -8.80622,-5.7335 -19.93679,-14.4643 -27.12323,-22.9807 -3.59337,-4.2578 -6.15963,-8.4721 -7.09078,-11.933 -0.0583,-0.2153 -0.11099,-0.4262 -0.15882,-0.6338 -0.15943,0.038 -0.31887,0.08 -0.4783,0.115 -1.75591,0.3839 -3.52163,0.5448 -5.23155,0.4636 0.0889,0.5172 0.19776,1.0332 0.33542,1.5437 1.2908,4.7983 4.33995,9.5139 8.24453,14.1406 7.80854,9.2532 19.20432,18.1152 28.37601,24.0872 6.22187,4.0502 11.35653,6.2038 15.70108,6.6953 4.34547,0.4918 8.32731,-1.1191 10.05654,-4.4283 1.72924,-3.3091 1.3469,-7.3633 -0.24835,-11.7355 -0.41789,-1.1467 -0.93145,-2.3262 -1.53546,-3.5308 4.47026,1.1921 8.19242,1.5257 11.31056,1.0403 4.23325,-0.6586 7.54609,-3.4425 8.25005,-7.1132 0.70426,-3.6709 -0.66104,-7.5546 -3.26041,-11.5181 -2.59998,-3.9638 -6.57446,-8.0643 -11.86551,-11.9771 -13.95958,-10.3224 -24.29513,-15.1842 -36.39456,-19.8672 z"
       inkscape:connector-curvature="0" />
    <path
       id="path7828"
       d="m 552.08392,1187.9708 c -14.78989,0.09 -31.48596,3.4041 -47.76564,7.6145 -0.80495,7.9011 0.51607,15.9751 3.25269,24.1692 17.74722,-20.0689 67.00706,-27.2816 88.58425,-7.9985 -7.11744,-17.9753 -23.80377,-23.9085 -44.07153,-23.7852 z m -53.54769,8.3536 -8.75166,2.2169 c 1.30826,18.0884 6.61805,30.6937 14.0123,40.4488 -3.8346,2.399 -9.43419,4.5609 -15.9463,6.2232 1.31313,1.5295 3.3037,3.7512 7.07802,4.296 5.76026,-1.0039 9.25313,-3.4734 12.46131,-6.1653 17.67535,19.7399 44.10028,27.5783 58.6843,51.9828 l 11.46116,-0.029 c -26.75646,-49.3881 -75.43925,-28.6413 -78.9989,-98.9732 z"
       inkscape:connector-curvature="0"
       style="fill-rule:evenodd" />
    <path
       id="path7883"
       d="m 376.42453,1358.0189 -20.28753,0 c -4.40956,-5.1032 -12.01425,-6.5975 6.42915,-30.2884 3.0918,-3.9716 -11.96923,-12.2408 -14.57276,-9.1439 -7.33639,11.7805 -12.93837,26.9031 -30.85999,18.2876 -1.78684,6.7366 1.14076,13.9129 2.57156,21.1449 l -24.14513,0 c 4.09751,-12.2337 5.91274,-25.8222 18.14466,-32.7174 l 10.42947,5.1434 c -0.34325,-4.1436 -0.55427,-8.2866 0.42867,-12.4299 -30.79629,-7.9167 -26.72692,-18.0352 -28.85982,-20.6446 l 6.00047,1.9285 c -3.93637,-11.8382 1.42416,-19.8166 4.71495,-23.7164 1.13181,2.504 3.17059,11.3252 5.14312,16.8589 1.15892,-1.4234 1.09216,-3.1949 4.42899,-3.6433 -0.83612,11.3099 1.16429,20.5763 11.85823,20.6449 3.7801,-5.9803 8.28991,-10.1356 13.14426,-13.43 -1.0942,-5.2472 -0.39747,-15.4058 -5.14363,-15.5728 -6.49923,-0.2287 -9.52172,0.7182 -14.0011,-0.7144 -4.13665,-5.7127 -3.8333,-12.1723 -3.25857,-17.3536 -13.98525,-7.0483 -12.37694,-20.9663 -3.52253,-22.7107 -1.02873,5.7652 -2.36157,10.3944 4.06682,12.6332 0.23377,-10.7898 0.75965,-22.8591 16.84122,-13.8814 -5.15309,1.883 -10.59981,4.1244 -9.22758,10.099 11.92089,-5.8531 14.29116,1.151 16.1358,5.5907 -4.38653,-0.1176 -9.78645,-5.0656 -13.32023,1.6206 -2.11449,4.0011 0.84738,11.0431 3.57189,15.1444 7.80829,-6.5567 14.22798,-15.2953 26.43099,-12.2869 -5.92042,-6.3815 -6.15547,-12.7631 -6.57213,-19.1447 4.07142,1.1717 8.51116,3.6008 14.71574,9.5724 l 38.57492,0 -6.28592,12.7153 -3.98599,-5.1851 -6.15778,6.3279 -5.57205,-6.7146 -7.42923,8.572 3.42891,4.1436 3.8576,-4.8579 5.14311,5.572 6.42916,-5.4291 3.28619,3.1433 -3.00024,7.2862 c -8.28249,0.5852 -16.36344,-2.8608 -25.14521,7.7152 2.40608,5.5199 6.7146,8.8999 13.42971,9.5721 15.78999,-19.7609 22.46699,-10.4008 24.88892,-4.8618 -4.78605,-1.8917 -10.52385,-1.3249 -12.5304,5.3618 24.06942,-3.3979 16.66884,11.9342 15.02267,16.1719 -2.31655,-5.3434 -2.02573,-12.9404 -10.66529,-9.8141 5.59916,12.7837 0.21638,14.2513 -3.00024,16.573 -0.75837,-7.0326 -1.00391,-18.004 -8.00063,-16.0013 -12.424,3.5555 -20.82262,8.7718 -25.43117,-9.001 -3.13196,3.3146 -5.33188,7.2947 -4.71469,13.287 16.53174,4.894 24.09781,12.8844 25.59844,26.5768 0.35374,3.2291 -12.51326,5.3214 -18.59789,3.8545 -2.17613,11.9306 3.25729,18.4401 9.57237,24.0022 z"
       inkscape:connector-curvature="0" />
    <path
       id="path7938"
       d="m 478.57115,682.14351 c -4.41234,0 -14.3811,9.04003 -14.3811,20.18622 0,10.14807 2.06703,17.94344 5.30254,22.79672 -7.43769,1.2102 -14.21625,4.02344 -19.61293,8.77772 -0.96088,0.84618 -1.87163,1.75532 -2.73161,2.72201 -12.31954,-11.64367 -37.02674,4.18799 -44.02704,12.6232 -6.30005,7.59005 18.76612,8.55415 35.58093,5.38287 -0.59036,3.13457 -0.90401,6.51151 -0.90401,10.13264 0,12.72704 3.75355,24.49325 10.01277,33.51267 -13.71747,1.57151 -19.89765,20.63291 -19.63316,29.06361 0.29308,9.35337 24.74512,-5.69394 33.90403,-15.86735 2.83445,1.56238 5.84789,2.73057 8.99824,3.45466 1.54962,4.58106 3.38269,9.12484 7.49167,13.38648 4.41298,-4.46381 6.02945,-8.92436 7.48138,-13.38682 3.1542,-0.72409 6.17117,-1.89059 9.00883,-3.45466 9.15827,10.17307 33.61063,25.22072 33.90404,15.86702 0.26416,-8.43071 -5.91633,-27.49278 -19.63381,-29.06361 6.25923,-9.01942 10.01245,-20.78586 10.01245,-33.512 0,-3.6218 -0.313,-6.99864 -0.90303,-10.13321 16.81448,3.17118 41.88032,2.20708 35.58059,-5.38286 -7.00061,-8.43522 -31.70782,-24.26698 -44.02703,-12.62331 -0.86031,-0.9667 -1.77073,-1.87584 -2.73161,-2.7219 -5.41822,-4.77388 -12.23052,-7.58555 -19.70355,-8.78741 3.28821,-4.92018 5.39251,-12.79586 5.39251,-22.78681 0,-11.14585 -9.96811,-20.18588 -14.3811,-20.18588 z m 0,48.28516 c 6.49801,0 12.4648,1.10039 17.53466,3.38461 l -8.46637,10.27399 -18.13721,0 -8.46573,-10.27399 c 5.06953,-2.28422 11.03568,-3.38404 17.53433,-3.38404 z m -22.79668,6.43752 8.27514,10.04277 -9.63131,14.15033 -1.37544,2.0182 1.70645,1.75779 11.74011,12.09137 -7.49167,9.13835 -1.6968,2.06899 1.85749,1.92821 8.71704,8.99824 4.3185,-4.17785 -6.85922,-7.07961 6.91899,-8.42621 12.63384,0 6.91899,8.42621 -6.8589,7.07961 4.31851,4.17785 8.71703,-8.99824 1.85749,-1.92821 -1.69681,-2.06899 -7.49134,-9.13801 11.75008,-12.09171 1.68717,-1.74755 -1.35617,-2.01819 -9.55032,-14.26093 8.1948,-9.94242 c 0.66201,0.48397 1.30475,0.99632 1.91856,1.53682 6.14001,5.40922 10.04266,13.74217 10.04266,26.36154 0,25.23942 -15.97186,45.01139 -34.76851,45.01139 -18.79537,0 -34.76723,-19.77197 -34.76723,-45.01105 0,-12.61994 3.90138,-20.953 10.04267,-26.36154 0.61478,-0.54253 1.26297,-1.05184 1.9282,-1.53682 z m 13.36654,13.22644 19.01069,0 8.24462,12.2923 -10.66547,10.98614 -14.32068,0 -10.64458,-10.96654 8.37574,-12.31156 z"
       inkscape:connector-curvature="0" />
  </g>
</svg>
