<?xml version="1.0" encoding="UTF-8" standalone="no"?>
<!-- Created with Inkscape (http://www.inkscape.org/) -->

<svg
   xmlns:dc="http://purl.org/dc/elements/1.1/"
   xmlns:cc="http://creativecommons.org/ns#"
   xmlns:rdf="http://www.w3.org/1999/02/22-rdf-syntax-ns#"
   xmlns:svg="http://www.w3.org/2000/svg"
   xmlns="http://www.w3.org/2000/svg"
   xmlns:sodipodi="http://sodipodi.sourceforge.net/DTD/sodipodi-0.dtd"
   xmlns:inkscape="http://www.inkscape.org/namespaces/inkscape"
   width="512"
   height="512"
   viewBox="0 0 512.00001 512.00001"
   id="svg4562"
   version="1.1"
   inkscape:version="0.91 r13725"
   sodipodi:docname="color_icon.svg"
   inkscape:export-filename="D:\Projekty\GitHub\ContrastCards\play\icon.png"
   inkscape:export-xdpi="90"
   inkscape:export-ydpi="90">
  <defs
     id="defs4564">
    <clipPath
       id="clipPath29562"
       clipPathUnits="userSpaceOnUse">
      <path
         inkscape:connector-curvature="0"
         id="path29564"
         d="m 682.886,595.772 c -5.116,-0.464 -10.169,-1.313 -15.251,-2.263 l 0,0 c -9.587,-1.794 -19.272,-3.949 -29.645,-4.565 l 0,0 c 0,0 -4.98,-2.686 -11.019,-6.236 l 0,0 c -9.445,-5.553 -21.477,-13.224 -21.097,-16.055 l 0,0 c 0.375,-2.793 4.872,-1.905 12.718,-1.017 l 0,0 c 3.902,0.441 8.632,0.882 14.095,0.872 l 0,0 c 0.974,-0.004 1.953,0.01 2.938,0.037 l 0,0 c 14.683,0.404 30.375,3.846 45.31,4.222 l 0,0 c 3.859,0.098 7.666,-0.01 11.392,-0.427 l 0,0 c 4.258,-0.476 6.884,0.588 8.229,2.514 l 0,0 c 1.775,2.539 1.326,6.579 -0.54,10.567 l 0,0 c -2.93,6.262 -9.349,12.397 -16.127,12.396 l 0,0 c -0.333,0 -0.668,-0.015 -1.003,-0.045" />
    </clipPath>
  </defs>
  <sodipodi:namedview
     id="base"
     pagecolor="#ffffff"
     bordercolor="#666666"
     borderopacity="1.0"
     inkscape:pageopacity="0.0"
     inkscape:pageshadow="2"
     inkscape:zoom="1.306963"
     inkscape:cx="260.95853"
     inkscape:cy="306.00769"
     inkscape:document-units="px"
     inkscape:current-layer="layer1"
     showgrid="false"
     units="px"
     inkscape:window-width="1920"
     inkscape:window-height="1017"
     inkscape:window-x="-8"
     inkscape:window-y="-8"
     inkscape:window-maximized="1" />
  <metadata
     id="metadata4567">
    <rdf:RDF>
      <cc:Work
         rdf:about="">
        <dc:format>image/svg+xml</dc:format>
        <dc:type
           rdf:resource="http://purl.org/dc/dcmitype/StillImage" />
        <dc:title></dc:title>
      </cc:Work>
    </rdf:RDF>
  </metadata>
  <g
     inkscape:label="Layer 1"
     inkscape:groupmode="layer"
     id="layer1"
     transform="translate(0,-540.36216)">
    <g
       id="g4304"
       transform="matrix(2.9055828,0,0,-2.9055828,510.65302,571.73966)">
      <path
         d="m 0,0 c 1.061,4.351 -4.569,5.548 -7.557,5.133 -6.497,-0.902 -12.655,-4.373 -18.268,-7.571 -7.048,-4.017 -13.767,-8.63 -20.305,-13.425 -14.206,-10.418 -27.002,-23.63 -33.729,-40.197 -2.011,-4.949 -3.497,-10.103 -3.999,-15.416 -0.356,0.333 -0.757,0.613 -1.19,0.837 1.122,9.624 4.988,18.427 8.023,28.137 0.057,0.185 -0.225,0.308 -0.314,0.133 -4.078,-8.016 -8.571,-18 -9.539,-27.72 -0.135,0.014 -0.271,0.017 -0.41,0.019 -0.561,0.131 -1.114,0.164 -1.647,0.111 -0.967,9.719 -5.461,19.703 -9.539,27.719 -0.089,0.175 -0.371,0.052 -0.313,-0.132 3.034,-9.71 6.9,-18.513 8.022,-28.137 -0.432,-0.224 -0.835,-0.505 -1.189,-0.837 -0.502,5.313 -1.988,10.466 -3.999,15.417 -6.728,16.567 -19.524,29.777 -33.73,40.196 -6.538,4.795 -13.256,9.408 -20.304,13.425 -5.614,3.198 -11.772,6.669 -18.269,7.572 -2.987,0.413 -8.617,-0.784 -7.556,-5.134 0.578,-2.369 2.023,-4.091 3.136,-6.212 2.073,-3.949 0.329,-7.064 -0.709,-10.892 -0.936,-3.451 -1.907,-7.098 -0.65,-10.605 1.034,-2.888 2.883,-5.633 3.656,-8.578 0.972,-3.705 0.887,-7.301 0.5,-11.072 -0.576,-5.618 -1.179,-11.544 0.938,-16.948 3.464,-8.847 10.882,-14.502 19.058,-18.724 -24.962,-11.449 -18.668,-50.079 -0.426,-66.275 7.5,-6.656 25.227,-20.063 33.765,-7.723 4.148,5.993 5.007,13.342 7.44,20.057 3.302,9.108 10.951,17.036 15.014,25.774 0.015,-3.897 0.379,-7.931 1.063,-11.709 0.429,-2.379 1.802,-6.485 4.616,-7.35 0.044,-0.166 0.171,-0.292 0.403,-0.262 3.227,0.418 4.763,4.938 5.223,7.483 0.683,3.778 1.048,7.81 1.062,11.709 4.064,-8.738 11.712,-16.666 15.014,-25.774 2.434,-6.716 3.293,-14.065 7.44,-20.058 8.539,-12.34 26.265,1.067 33.765,7.724 18.242,16.195 24.536,54.826 -0.426,66.273 8.176,4.222 15.594,9.878 19.059,18.726 2.116,5.404 1.514,11.328 0.936,16.948 -0.385,3.771 -0.47,7.367 0.501,11.071 0.774,2.945 2.622,5.691 3.657,8.578 1.256,3.507 0.286,7.154 -0.651,10.606 -1.038,3.828 -2.782,6.943 -0.709,10.891 C -2.023,-4.09 -0.578,-2.369 0,0"
         style="fill:#000000;fill-opacity:1;fill-rule:nonzero;stroke:none"
         id="path4306"
         inkscape:connector-curvature="0" />
    </g>
    <circle
       style="fill:#ffcc00;fill-opacity:1;stroke:none;stroke-width:31.60000038;stroke-miterlimit:4;stroke-dasharray:none;stroke-opacity:1"
       id="path4304"
       cx="451.04568"
       cy="633.45209"
       r="37.874062" />
    <circle
       style="fill:#ffe680;fill-opacity:1;stroke:none;stroke-width:31.60000038;stroke-miterlimit:4;stroke-dasharray:none;stroke-opacity:1"
       id="path4304-7"
       cx="462.90521"
       cy="708.05249"
       r="19.51088" />
    <circle
       style="fill:#ffffff;fill-opacity:1;stroke:none;stroke-width:31.60000038;stroke-miterlimit:4;stroke-dasharray:none;stroke-opacity:1"
       id="path4304-7-9"
       cx="459.07956"
       cy="762.37695"
       r="11.859553" />
    <circle
       style="fill:#ffcc00;fill-opacity:1;stroke:none;stroke-width:31.60000038;stroke-miterlimit:4;stroke-dasharray:none;stroke-opacity:1"
       id="path4304-72"
       cx="-62.740868"
       cy="633.36896"
       r="38.639198"
       transform="scale(-1,1)" />
    <circle
       style="fill:#ffe680;fill-opacity:1;stroke:none;stroke-width:31.60000038;stroke-miterlimit:4;stroke-dasharray:none;stroke-opacity:1"
       id="path4304-7-6"
       cx="-50.641808"
       cy="709.47644"
       r="19.905041"
       transform="scale(-1,1)" />
    <circle
       style="fill:#ffffff;fill-opacity:1;stroke:none;stroke-width:31.60000038;stroke-miterlimit:4;stroke-dasharray:none;stroke-opacity:1"
       id="path4304-7-9-9"
       cx="-54.544701"
       cy="764.89838"
       r="12.099142"
       transform="scale(-1,1)" />
    <circle
       style="fill:#d40000;fill-opacity:1;stroke:none;stroke-width:31.60000038;stroke-miterlimit:4;stroke-dasharray:none;stroke-opacity:1"
       id="path4304-7-6-0"
       cx="-137.72386"
       cy="1003.3936"
       r="19.905041"
       transform="scale(-1,1)" />
    <circle
       style="fill:#d40000;fill-opacity:1;stroke:none;stroke-width:31.60000038;stroke-miterlimit:4;stroke-dasharray:none;stroke-opacity:1"
       id="path4304-7-6-0-1"
       cx="-366.4985"
       cy="1001.8634"
       r="19.905041"
       transform="scale(-1,1)" />
  </g>
</svg>
